# xmcd
#
# Track frame offsets:
#   150
#   15977
#   22590
#   35423
#   50294
#   59091
#   77957
#   92638
#   114785
#   130387
#   139680
#   158647
#   176682
#   183354
#   201849
#
# Disc length: 2822 seconds
#
# Revision: 0
# Processed by: cddbd v1.5.2PL0 Copyright (c) Steve Scherf et al.
# Submitted via: uFREEDB ActiveX Control 1.5
#
DISCID=b90b040f
DTITLE=Bjork - Medulla
DYEAR=2004
DGENRE=Pop Internacional
TTITLE0=Pleasure Is All Mine
TTITLE1=Show Me Forgiveness
TTITLE2=Where Is The Line 
TTITLE3=Vökuro
TTITLE4=Öll Birtan
TTITLE5=Who Is It 
TTITLE6=Submarine 
TTITLE7=Desired Constellation 
TTITLE8=Oceania
TTITLE9=Sonnets/Unrealites XI 
TTITLE10=Ancestors
TTITLE11=Mouth´s Cradle 
TTITLE12=Midvikudags
TTITLE13=Triumph Of A Heart 
TTITLE14=Bonus Track
EXTD=
EXTT0=
EXTT1=
EXTT2=
EXTT3=
EXTT4=
EXTT5=
EXTT6=
EXTT7=
EXTT8=
EXTT9=
EXTT10=
EXTT11=
EXTT12=
EXTT13=
EXTT14=
PLAYORDER=
